<svg width="191" height="100" viewBox="0 0 191 100" fill="none" xmlns="http://www.w3.org/2000/svg">
<rect x="4" y="4" width="152" height="92" rx="6" stroke="url(#paint0_linear_912_2604)" stroke-width="8"/>
<rect x="19" y="24" width="172" height="51" fill="white"/>
<path d="M21.416 69L37.64 32.6H45.96L62.236 69H53.396L40.084 36.864H43.412L30.048 69H21.416ZM29.528 61.2L31.764 54.804H50.484L52.772 61.2H29.528ZM67.0631 69V32.6H100.239V69H91.8671V37.54L93.7911 39.464H73.5111L75.4351 37.54V69H67.0631ZM126.682 69.624C123.805 69.624 121.136 69.156 118.674 68.22C116.248 67.284 114.133 65.9667 112.33 64.268C110.562 62.5693 109.176 60.576 108.17 58.288C107.2 56 106.714 53.504 106.714 50.8C106.714 48.096 107.2 45.6 108.17 43.312C109.176 41.024 110.58 39.0307 112.382 37.332C114.185 35.6333 116.3 34.316 118.726 33.38C121.153 32.444 123.788 31.976 126.63 31.976C129.508 31.976 132.142 32.444 134.534 33.38C136.961 34.316 139.058 35.6333 140.826 37.332C142.629 39.0307 144.033 41.024 145.038 43.312C146.044 45.5653 146.546 48.0613 146.546 50.8C146.546 53.504 146.044 56.0173 145.038 58.34C144.033 60.628 142.629 62.6213 140.826 64.32C139.058 65.984 136.961 67.284 134.534 68.22C132.142 69.156 129.525 69.624 126.682 69.624ZM126.63 62.448C128.26 62.448 129.75 62.1707 131.102 61.616C132.489 61.0613 133.702 60.264 134.742 59.224C135.782 58.184 136.58 56.9533 137.134 55.532C137.724 54.1107 138.018 52.5333 138.018 50.8C138.018 49.0667 137.724 47.4893 137.134 46.068C136.58 44.6467 135.782 43.416 134.742 42.376C133.737 41.336 132.541 40.5387 131.154 39.984C129.768 39.4293 128.26 39.152 126.63 39.152C125.001 39.152 123.493 39.4293 122.106 39.984C120.754 40.5387 119.558 41.336 118.518 42.376C117.478 43.416 116.664 44.6467 116.074 46.068C115.52 47.4893 115.242 49.0667 115.242 50.8C115.242 52.4987 115.52 54.076 116.074 55.532C116.664 56.9533 117.461 58.184 118.466 59.224C119.506 60.264 120.72 61.0613 122.106 61.616C123.493 62.1707 125.001 62.448 126.63 62.448ZM176.592 69L165.256 51.476L172.068 47.368L186.16 69H176.592ZM152.932 69V32.6H161.304V69H152.932ZM158.86 54.336V47.316H171.548V54.336H158.86ZM172.848 51.736L165.1 50.8L176.904 32.6H185.796L172.848 51.736Z" fill="url(#paint1_linear_912_2604)"/>
<defs>
<linearGradient id="paint0_linear_912_2604" x1="0" y1="100" x2="163.552" y2="93.8063" gradientUnits="userSpaceOnUse">
<stop stop-color="#90C0C4"/>
<stop offset="1" stop-color="#488589"/>
</linearGradient>
<linearGradient id="paint1_linear_912_2604" x1="21" y1="75" x2="189.886" y2="61.7289" gradientUnits="userSpaceOnUse">
<stop stop-color="#90C0C4"/>
<stop offset="1" stop-color="#488589"/>
</linearGradient>
</defs>
</svg>
