<svg width="40" height="40" viewBox="0 0 40 40" fill="none" xmlns="http://www.w3.org/2000/svg">
<path d="M8.75 18.75H33.75C34.0815 18.75 34.3995 18.8817 34.6339 19.1161C34.8683 19.3505 35 19.6685 35 20C35 20.3315 34.8683 20.6495 34.6339 20.8839C34.3995 21.1183 34.0815 21.25 33.75 21.25H8.75C8.41848 21.25 8.10054 21.1183 7.86612 20.8839C7.6317 20.6495 7.5 20.3315 7.5 20C7.5 19.6685 7.6317 19.3505 7.86612 19.1161C8.10054 18.8817 8.41848 18.75 8.75 18.75Z" fill="url(#paint0_linear_260_496)"/>
<path d="M9.26778 20.0001L19.6353 30.3651C19.87 30.5998 20.0019 30.9182 20.0019 31.2501C20.0019 31.5821 19.87 31.9004 19.6353 32.1351C19.4006 32.3698 19.0822 32.5017 18.7503 32.5017C18.4183 32.5017 18.1 32.3698 17.8653 32.1351L6.61528 20.8851C6.49887 20.769 6.40652 20.6311 6.3435 20.4792C6.28048 20.3273 6.24805 20.1645 6.24805 20.0001C6.24805 19.8357 6.28048 19.6729 6.3435 19.521C6.40652 19.3692 6.49887 19.2312 6.61528 19.1151L17.8653 7.86511C18.1 7.6304 18.4183 7.49854 18.7503 7.49854C19.0822 7.49854 19.4006 7.6304 19.6353 7.86511C19.87 8.09983 20.0019 8.41817 20.0019 8.75011C20.0019 9.08205 19.87 9.4004 19.6353 9.63511L9.26778 20.0001Z" fill="url(#paint1_linear_260_496)"/>
<defs>
<linearGradient id="paint0_linear_260_496" x1="7.5" y1="21.25" x2="33.8638" y2="14.386" gradientUnits="userSpaceOnUse">
<stop stop-color="#83B5B8"/>
<stop offset="1" stop-color="#618580"/>
</linearGradient>
<linearGradient id="paint1_linear_260_496" x1="6.24805" y1="32.5017" x2="20.325" y2="32.3184" gradientUnits="userSpaceOnUse">
<stop stop-color="#83B5B8"/>
<stop offset="1" stop-color="#618580"/>
</linearGradient>
</defs>
</svg>
