<svg width="56" height="56" viewBox="0 0 56 56" fill="none" xmlns="http://www.w3.org/2000/svg">
<path d="M12.1646 26.25H46.9207C47.3816 26.25 47.8236 26.4344 48.1495 26.7626C48.4754 27.0908 48.6585 27.5359 48.6585 28C48.6585 28.4641 48.4754 28.9092 48.1495 29.2374C47.8236 29.5656 47.3816 29.75 46.9207 29.75H12.1646C11.7037 29.75 11.2617 29.5656 10.9357 29.2374C10.6098 28.9092 10.4268 28.4641 10.4268 28C10.4268 27.5359 10.6098 27.0908 10.9357 26.7626C11.2617 26.4344 11.7037 26.25 12.1646 26.25Z" fill="url(#paint0_linear_500_32)"/>
<path d="M12.8837 28L27.2971 42.511C27.6234 42.8396 27.8067 43.2853 27.8067 43.75C27.8067 44.2147 27.6234 44.6604 27.2971 44.989C26.9708 45.3176 26.5282 45.5022 26.0667 45.5022C25.6052 45.5022 25.1626 45.3176 24.8363 44.989L9.19609 29.239C9.03426 29.0765 8.90586 28.8833 8.81825 28.6707C8.73064 28.4581 8.68555 28.2302 8.68555 28C8.68555 27.7698 8.73064 27.5419 8.81825 27.3293C8.90586 27.1167 9.03426 26.9236 9.19609 26.761L24.8363 11.011C25.1626 10.6824 25.6052 10.4978 26.0667 10.4978C26.5282 10.4978 26.9708 10.6824 27.2971 11.011C27.6234 11.3396 27.8067 11.7853 27.8067 12.25C27.8067 12.7147 27.6234 13.1604 27.2971 13.489L12.8837 28Z" fill="url(#paint1_linear_500_32)"/>
<defs>
<linearGradient id="paint0_linear_500_32" x1="10.4268" y1="26.25" x2="18.0601" y2="43.3828" gradientUnits="userSpaceOnUse">
<stop stop-color="white"/>
<stop offset="1" stop-color="#F6F9FA"/>
</linearGradient>
<linearGradient id="paint1_linear_500_32" x1="8.68555" y1="10.4978" x2="31.4488" y2="13.0528" gradientUnits="userSpaceOnUse">
<stop stop-color="white"/>
<stop offset="1" stop-color="#F6F9FA"/>
</linearGradient>
</defs>
</svg>
