<svg width="30" height="38" viewBox="0 0 30 38" fill="none" xmlns="http://www.w3.org/2000/svg">
<path d="M17.4998 30.0833C17.7918 30.084 18.0749 29.9552 18.2998 29.7192C18.4263 29.5862 18.531 29.423 18.6076 29.2388C18.6843 29.0546 18.7316 28.853 18.7467 28.6456C18.7618 28.4382 18.7444 28.2291 18.6956 28.0302C18.6468 27.8314 18.5675 27.6466 18.4623 27.4867L12.8623 19L18.2623 10.4975C18.3661 10.3355 18.4436 10.1492 18.4904 9.94914C18.5372 9.7491 18.5523 9.53933 18.5349 9.33187C18.5175 9.1244 18.4679 8.92335 18.3889 8.74026C18.3099 8.55717 18.2032 8.39565 18.0748 8.26499C17.9454 8.12085 17.794 8.01212 17.6299 7.94564C17.4658 7.87916 17.2927 7.85635 17.1213 7.87865C16.9499 7.90095 16.784 7.96788 16.6341 8.07523C16.4841 8.18259 16.3532 8.32805 16.2498 8.50249L10.2123 18.0025C10.0284 18.2858 9.92789 18.6412 9.92789 19.0079C9.92789 19.3746 10.0284 19.73 10.2123 20.0133L16.4623 29.5133C16.5876 29.7049 16.7469 29.8564 16.9272 29.9554C17.1075 30.0545 17.3036 30.0983 17.4998 30.0833Z" fill="white"/>
</svg>
