<svg width="18" height="18" viewBox="0 0 18 18" fill="none" xmlns="http://www.w3.org/2000/svg">
<path d="M4.5 14.625H2.25C1.95172 14.6247 1.66575 14.5061 1.45483 14.2952C1.24392 14.0843 1.1253 13.7983 1.125 13.5V11.25H2.25V13.5H4.5V14.625ZM1.125 6.75H2.25V9H1.125V6.75ZM14.625 4.5H13.5V2.25H11.25V1.125H13.5C13.7983 1.1253 14.0843 1.24392 14.2952 1.45483C14.5061 1.66575 14.6247 1.95172 14.625 2.25V4.5ZM6.75 1.125H9V2.25H6.75V1.125ZM2.25 4.5H1.125V2.25C1.1253 1.95172 1.24392 1.66575 1.45483 1.45483C1.66575 1.24392 1.95172 1.1253 2.25 1.125H4.5V2.25H2.25V4.5ZM15.1875 18C15.1136 18.0001 15.0405 17.9856 14.9722 17.9573C14.904 17.929 14.842 17.8875 14.7898 17.8352L11.3372 14.3826L9.468 17.1872C9.40876 17.276 9.32547 17.3462 9.22785 17.3894C9.13022 17.4327 9.02231 17.4472 8.91671 17.4314C8.81111 17.4156 8.7122 17.3701 8.63152 17.3001C8.55085 17.2302 8.49174 17.1387 8.46112 17.0364L5.08612 5.78644C5.05697 5.68917 5.05469 5.58582 5.07953 5.48736C5.10437 5.3889 5.15539 5.299 5.2272 5.2272C5.299 5.15539 5.3889 5.10437 5.48736 5.07953C5.58582 5.05469 5.68917 5.05697 5.78644 5.08612L17.0364 8.46112C17.1387 8.49174 17.2302 8.55085 17.3001 8.63152C17.3701 8.7122 17.4156 8.81111 17.4314 8.91671C17.4472 9.02231 17.4327 9.13022 17.3894 9.22785C17.3462 9.32547 17.276 9.40876 17.1872 9.468L14.3826 11.3372L17.8352 14.7898C17.9406 14.8953 17.9999 15.0383 17.9999 15.1875C17.9999 15.3367 17.9406 15.4797 17.8352 15.5852L15.5852 17.8352C15.533 17.8875 15.471 17.929 15.4028 17.9573C15.3345 17.9856 15.2614 18.0001 15.1875 18ZM15.1875 16.6421L16.6421 15.1875L12.6174 11.1628L15.5683 9.19519L6.46425 6.46425L9.19519 15.5683L11.1628 12.6174L15.1875 16.6421Z" fill="url(#paint0_linear_748_2275)"/>
<defs>
<linearGradient id="paint0_linear_748_2275" x1="1.125" y1="18" x2="18.3896" y2="17.5914" gradientUnits="userSpaceOnUse">
<stop stop-color="#83B5B8"/>
<stop offset="1" stop-color="#618580"/>
</linearGradient>
</defs>
</svg>
