<svg width="25" height="24" viewBox="0 0 25 24" fill="none" xmlns="http://www.w3.org/2000/svg">
<path d="M4.52656 21C4.52656 21 3.02734 21 3.02734 19.5C3.02734 18 4.52656 13.5 12.0227 13.5C19.5187 13.5 21.018 18 21.018 19.5C21.018 21 19.5187 21 19.5187 21H4.52656ZM12.0227 12C13.2155 12 14.3595 11.5259 15.203 10.682C16.0465 9.83807 16.5203 8.69347 16.5203 7.5C16.5203 6.30653 16.0465 5.16193 15.203 4.31802C14.3595 3.47411 13.2155 3 12.0227 3C10.8298 3 9.68581 3.47411 8.84233 4.31802C7.99886 5.16193 7.525 6.30653 7.525 7.5C7.525 8.69347 7.99886 9.83807 8.84233 10.682C9.68581 11.5259 10.8298 12 12.0227 12Z" fill="url(#paint0_linear_684_1304)"/>
<defs>
<linearGradient id="paint0_linear_684_1304" x1="3.02734" y1="21" x2="21.4335" y2="20.5646" gradientUnits="userSpaceOnUse">
<stop stop-color="#83B5B8"/>
<stop offset="1" stop-color="#618580"/>
</linearGradient>
</defs>
</svg>
