<svg width="14" height="14" viewBox="0 0 14 14" fill="none" xmlns="http://www.w3.org/2000/svg">
<path d="M1.16699 3.50033C1.16699 2.88149 1.41282 2.28799 1.85041 1.85041C2.28799 1.41282 2.88149 1.16699 3.50033 1.16699H10.5003C11.1192 1.16699 11.7127 1.41282 12.1502 1.85041C12.5878 2.28799 12.8337 2.88149 12.8337 3.50033V10.5003C12.8337 11.1192 12.5878 11.7127 12.1502 12.1502C11.7127 12.5878 11.1192 12.8337 10.5003 12.8337H3.50033C2.88149 12.8337 2.28799 12.5878 1.85041 12.1502C1.41282 11.7127 1.16699 11.1192 1.16699 10.5003V3.50033Z" stroke="#476D70" stroke-linecap="round" stroke-linejoin="round"/>
<path d="M4.95833 6.41667C5.76375 6.41667 6.41667 5.76375 6.41667 4.95833C6.41667 4.15292 5.76375 3.5 4.95833 3.5C4.15292 3.5 3.5 4.15292 3.5 4.95833C3.5 5.76375 4.15292 6.41667 4.95833 6.41667Z" stroke="#476D70" stroke-linecap="round" stroke-linejoin="round"/>
<path d="M8.4735 7.36226L3.5 12.8333H10.5776C11.1758 12.8333 11.7496 12.5957 12.1726 12.1727C12.5957 11.7496 12.8333 11.1759 12.8333 10.5776V10.5C12.8333 10.2282 12.7313 10.1238 12.5475 9.92251L10.1967 7.35876C10.0871 7.23924 9.95383 7.14388 9.80535 7.07874C9.65687 7.01361 9.49645 6.98014 9.33431 6.98047C9.17218 6.9808 9.01189 7.01492 8.86368 7.08066C8.71546 7.14639 8.58258 7.2423 8.4735 7.36226V7.36226Z" stroke="#476D70" stroke-linecap="round" stroke-linejoin="round"/>
</svg>
