<svg width="14" height="14" viewBox="0 0 14 14" fill="none" xmlns="http://www.w3.org/2000/svg">
<path d="M4.66797 2.33317V9.33317C4.66797 9.64259 4.79089 9.93934 5.00968 10.1581C5.22847 10.3769 5.52522 10.4998 5.83464 10.4998H10.5013C10.8107 10.4998 11.1075 10.3769 11.3263 10.1581C11.5451 9.93934 11.668 9.64259 11.668 9.33317V4.22434C11.6679 4.06891 11.6369 3.91506 11.5766 3.77181C11.5163 3.62857 11.4279 3.49881 11.3168 3.39017L9.38305 1.499C9.1651 1.28589 8.87238 1.16654 8.56755 1.1665H5.83464C5.52522 1.1665 5.22847 1.28942 5.00968 1.50821C4.79089 1.72701 4.66797 2.02375 4.66797 2.33317V2.33317Z" stroke="url(#paint0_linear_256_1086)" stroke-linecap="round" stroke-linejoin="round"/>
<path d="M9.33398 10.4997V11.6663C9.33398 11.9758 9.21107 12.2725 8.99228 12.4913C8.77348 12.7101 8.47674 12.833 8.16732 12.833H3.50065C3.19123 12.833 2.89449 12.7101 2.67569 12.4913C2.4569 12.2725 2.33398 11.9758 2.33398 11.6663V5.24967C2.33398 4.94026 2.4569 4.64351 2.67569 4.42472C2.89449 4.20592 3.19123 4.08301 3.50065 4.08301H4.66732" stroke="url(#paint1_linear_256_1086)" stroke-linecap="round" stroke-linejoin="round"/>
<defs>
<linearGradient id="paint0_linear_256_1086" x1="4.66797" y1="10.4998" x2="11.8314" y2="10.3727" gradientUnits="userSpaceOnUse">
<stop stop-color="#83B5B8"/>
<stop offset="1" stop-color="#618580"/>
</linearGradient>
<linearGradient id="paint1_linear_256_1086" x1="2.33398" y1="12.833" x2="9.4971" y2="12.6974" gradientUnits="userSpaceOnUse">
<stop stop-color="#83B5B8"/>
<stop offset="1" stop-color="#618580"/>
</linearGradient>
</defs>
</svg>
