<svg width="24" height="24" viewBox="0 0 24 24" fill="none" xmlns="http://www.w3.org/2000/svg">
<path d="M12.5 17.5556C12.9509 17.5556 13.3833 17.3917 13.7021 17.0999C14.0209 16.8082 14.2 16.4126 14.2 16C14.2 15.5874 14.0209 15.1918 13.7021 14.9001C13.3833 14.6083 12.9509 14.4444 12.5 14.4444C12.0491 14.4444 11.6167 14.6083 11.2979 14.9001C10.9791 15.1918 10.8 15.5874 10.8 16C10.8 16.4126 10.9791 16.8082 11.2979 17.0999C11.6167 17.3917 12.0491 17.5556 12.5 17.5556ZM12.5 3.55556C11.8237 3.55556 11.1751 3.80139 10.6969 4.23897C10.2187 4.67656 9.95 5.27005 9.95 5.88889V9H18.45C19.1263 9 19.7749 9.24583 20.2531 9.68342C20.7313 10.121 21 10.7145 21 11.3333V20.6667C21 21.2855 20.7313 21.879 20.2531 22.3166C19.7749 22.7542 19.1263 23 18.45 23H6.55C5.8737 23 5.2251 22.7542 4.74688 22.3166C4.26866 21.879 4 21.2855 4 20.6667V11.3333C4 10.7145 4.26866 10.121 4.74688 9.68342C5.2251 9.24583 5.8737 9 6.55 9H8.25V5.88889C8.25 4.85749 8.69777 3.86834 9.4948 3.13903C10.2918 2.40972 11.3728 2 12.5 2C13.6272 2 14.7082 2.40972 15.5052 3.13903C16.3022 3.86834 16.75 4.85749 16.75 5.88889C16.75 6.09517 16.6604 6.293 16.501 6.43886C16.3416 6.58472 16.1254 6.66667 15.9 6.66667C15.6746 6.66667 15.4584 6.58472 15.299 6.43886C15.1396 6.293 15.05 6.09517 15.05 5.88889C15.05 5.27005 14.7813 4.67656 14.3031 4.23897C13.8249 3.80139 13.1763 3.55556 12.5 3.55556ZM6.55 10.5556C6.32457 10.5556 6.10837 10.6375 5.94896 10.7834C5.78955 10.9292 5.7 11.1271 5.7 11.3333V20.6667C5.7 20.8729 5.78955 21.0708 5.94896 21.2166C6.10837 21.3625 6.32457 21.4444 6.55 21.4444H18.45C18.6754 21.4444 18.8916 21.3625 19.051 21.2166C19.2104 21.0708 19.3 20.8729 19.3 20.6667V11.3333C19.3 11.1271 19.2104 10.9292 19.051 10.7834C18.8916 10.6375 18.6754 10.5556 18.45 10.5556H6.55Z" fill="#83B5B8"/>
</svg>
