<svg width="125" height="54" viewBox="0 0 125 54" fill="none" xmlns="http://www.w3.org/2000/svg">
<path fill-rule="evenodd" clip-rule="evenodd" d="M52.5107 16.6359C53.1647 17.8975 53.7133 19.2213 54.1452 20.5959H58.5368V39.9999H64.1528V16.6359H52.5107ZM80.0977 40.1079C81.2017 40.2759 82.4017 40.3599 83.6977 40.3599C86.3857 40.3599 88.8097 39.9279 90.9697 39.0639C92.1697 38.5839 93.1057 37.8759 93.7777 36.9399C94.4737 36.0039 94.8217 34.8879 94.8217 33.5919V23.3679C94.8217 22.1199 94.5577 21.0519 94.0297 20.1639C93.5257 19.2999 92.9017 18.6279 92.1577 18.1479C91.4137 17.6679 90.4657 17.2599 89.3137 16.9239C88.3057 16.6599 87.3937 16.4919 86.5777 16.4199C85.7617 16.3239 84.8017 16.2759 83.6977 16.2759C82.7617 16.2759 81.8737 16.3119 81.0337 16.3839C80.1217 16.4559 79.1377 16.6479 78.0817 16.9599C77.0257 17.2719 76.1377 17.6559 75.4177 18.1119C74.6017 18.6399 73.9297 19.3599 73.4017 20.2719C72.8977 21.1839 72.6457 22.2159 72.6457 23.3679V33.5919C72.6457 34.9839 73.0057 36.1719 73.7257 37.1559C74.4457 38.1159 75.4417 38.8119 76.7137 39.2439C77.8897 39.6519 79.0177 39.9399 80.0977 40.1079ZM85.7497 36.2919C85.2217 36.3399 84.5617 36.3639 83.7697 36.3639C82.9777 36.3639 82.3057 36.3399 81.7537 36.2919C81.2257 36.2199 80.6737 36.0999 80.0977 35.9319C79.4977 35.7639 79.0417 35.4879 78.7297 35.1039C78.4177 34.6959 78.2617 34.1919 78.2617 33.5919V23.3319C78.2617 22.2039 78.7057 21.4119 79.5937 20.9559C80.4817 20.4999 81.8617 20.2719 83.7337 20.2719C85.6057 20.2719 86.9857 20.5119 87.8737 20.9919C88.7617 21.4479 89.2057 22.2279 89.2057 23.3319V33.5919C89.2057 34.1919 89.0497 34.6959 88.7377 35.1039C88.4497 35.4879 88.0177 35.7639 87.4417 35.9319C86.8657 36.0999 86.3017 36.2199 85.7497 36.2919ZM108.917 16.6359H103.301V39.9999H108.917V29.8479C109.829 29.8479 110.573 29.9319 111.149 30.0999C111.725 30.2679 112.241 30.5919 112.697 31.0719C113.177 31.5279 113.669 32.2119 114.173 33.1239L117.989 39.9999H124.289L120.149 32.3679C119.381 30.9519 118.589 29.8719 117.773 29.1279C116.981 28.3839 115.985 27.8679 114.785 27.5799V27.5079C115.721 27.1479 116.501 26.6919 117.125 26.1399C117.773 25.5639 118.481 24.7359 119.249 23.6559L124.289 16.6359H117.989L113.597 22.9719C112.829 24.0999 112.121 24.8679 111.473 25.2759C110.825 25.6599 109.973 25.8519 108.917 25.8519V16.6359Z" fill="#476D70"/>
<path d="M53.4147 20.5962V21.5962H54.7757L54.3691 20.2974L53.4147 20.5962ZM46.1392 20.5962V19.5962H45.1392V20.5962H46.1392ZM46.1392 40.0002V41.0002H47.1392V40.0002H46.1392ZM40.5232 40.0002H39.5232V41.0002H40.5232V40.0002ZM40.5232 16.6362V15.6362H39.5232V16.6362H40.5232ZM51.7851 16.6362L52.6735 16.177L52.3939 15.6362H51.7851V16.6362ZM18.7084 16.6362V15.6362H18.012L17.7704 16.2894L18.7084 16.6362ZM25.5484 16.6362L26.4891 16.297L26.2508 15.6362H25.5484V16.6362ZM10.0684 40.0002L9.13044 39.6534L8.63237 41.0002H10.0684V40.0002ZM15.6124 40.0002V41.0002H16.3331L16.561 40.3165L15.6124 40.0002ZM17.6644 33.8442V32.8442H16.9436L16.7157 33.528L17.6644 33.8442ZM26.1964 33.8442L27.1434 33.523L26.9131 32.8442H26.1964V33.8442ZM28.2844 40.0002L27.3374 40.3214L27.5676 41.0002H28.2844V40.0002ZM33.9724 40.0002V41.0002H35.3959L34.9131 39.6611L33.9724 40.0002ZM24.9724 30.1002V31.1002H26.3634L25.9203 29.7817L24.9724 30.1002ZM22.0204 21.3162L22.9683 20.9977L22.7393 20.3162H22.0204V21.3162ZM18.9244 30.1002L17.9765 29.7817L17.5333 31.1002H18.9244V30.1002ZM21.8764 21.3162V20.3162H21.1575L20.9285 20.9977L21.8764 21.3162ZM53.4147 19.5962H46.1392V21.5962H53.4147V19.5962ZM45.1392 20.5962V40.0002H47.1392V20.5962H45.1392ZM46.1392 39.0002H40.5232V41.0002H46.1392V39.0002ZM41.5232 40.0002V16.6362H39.5232V40.0002H41.5232ZM40.5232 17.6362H51.7851V15.6362H40.5232V17.6362ZM50.8968 17.0954C51.5227 18.3063 52.0476 19.5764 52.4604 20.895L54.3691 20.2974C53.9212 18.867 53.352 17.4896 52.6735 16.177L50.8968 17.0954ZM18.7084 17.6362H25.5484V15.6362H18.7084V17.6362ZM11.0063 40.3471L19.6463 16.9831L17.7704 16.2894L9.13044 39.6534L11.0063 40.3471ZM15.6124 39.0002H10.0684V41.0002H15.6124V39.0002ZM16.7157 33.528L14.6637 39.684L16.561 40.3165L18.613 34.1605L16.7157 33.528ZM26.1964 32.8442H17.6644V34.8442H26.1964V32.8442ZM29.2314 39.679L27.1434 33.523L25.2494 34.1654L27.3374 40.3214L29.2314 39.679ZM33.9724 39.0002H28.2844V41.0002H33.9724V39.0002ZM24.6076 16.9754L33.0316 40.3394L34.9131 39.6611L26.4891 16.297L24.6076 16.9754ZM25.9203 29.7817L22.9683 20.9977L21.0725 21.6348L24.0245 30.4188L25.9203 29.7817ZM18.9244 31.1002H24.9724V29.1002H18.9244V31.1002ZM20.9285 20.9977L17.9765 29.7817L19.8723 30.4188L22.8243 21.6348L20.9285 20.9977ZM22.0204 20.3162H21.8764V22.3162H22.0204V20.3162Z" fill="black"/>
<ellipse cx="28.2792" cy="27" rx="26.3046" ry="26" stroke="black" stroke-width="2"/>
</svg>
