<svg width="22" height="22" viewBox="0 0 22 22" fill="none" xmlns="http://www.w3.org/2000/svg">
<path d="M17.4682 0C18.3262 0 19.149 0.345715 19.7556 0.961091C20.3623 1.57647 20.7031 2.4111 20.7031 3.28137V8.04986C20.2851 7.91579 19.8471 7.85758 19.4091 7.87791V5.199L10.6802 10.4098C10.5977 10.459 10.5054 10.4889 10.4101 10.4976C10.3148 10.5062 10.2188 10.4933 10.129 10.4597L10.0229 10.4098L1.29394 5.20163V13.7818C1.29394 14.3039 1.49843 14.8047 1.86242 15.1739C2.22642 15.5431 2.72009 15.7506 3.23486 15.7506H10.3308C10.0371 16.1443 9.81326 16.5893 9.67093 17.0631H3.23486C2.37692 17.0631 1.55412 16.7174 0.947468 16.102C0.340814 15.4867 0 14.652 0 13.7818V3.28137C0 2.4111 0.340814 1.57647 0.947468 0.961091C1.55412 0.345715 2.37692 0 3.23486 0H17.4682ZM17.4682 1.31255H3.23486C2.72009 1.31255 2.22642 1.51998 1.86242 1.8892C1.49843 2.25843 1.29394 2.75921 1.29394 3.28137V3.67776L10.3515 9.08283L19.4091 3.67645V3.28137C19.4091 2.75921 19.2047 2.25843 18.8407 1.8892C18.4767 1.51998 17.983 1.31255 17.4682 1.31255ZM11.6196 16.2441L17.8693 9.90449C18.0942 9.67662 18.361 9.4959 18.6547 9.37264C18.9483 9.24939 19.263 9.18601 19.5809 9.18613C19.8987 9.18626 20.2133 9.24987 20.5069 9.37335C20.8005 9.49683 21.0672 9.67776 21.2918 9.9058C21.5165 10.1338 21.6946 10.4045 21.8161 10.7024C21.9376 11.0003 22.0001 11.3195 22 11.6419C21.9999 11.9643 21.9372 12.2835 21.8154 12.5813C21.6937 12.8791 21.5153 13.1496 21.2905 13.3775L15.0408 19.7158C14.6767 20.0853 14.2205 20.3475 13.721 20.4744L11.7826 20.9653C11.5899 21.0141 11.388 21.0114 11.1966 20.9576C11.0052 20.9038 10.8308 20.8006 10.6902 20.6582C10.5497 20.5158 10.4479 20.339 10.3947 20.1449C10.3414 19.9507 10.3386 19.746 10.3865 19.5504L10.8717 17.5842C10.9958 17.077 11.2545 16.614 11.6196 16.2454V16.2441Z" fill="#83B5B8"/>
</svg>
