<svg width="20" height="20" viewBox="0 0 20 20" fill="none" xmlns="http://www.w3.org/2000/svg">
<path d="M9.32917 16.9998H3.66667C3.22464 16.9998 2.80072 16.8242 2.48816 16.5117C2.17559 16.1991 2 15.7752 2 15.3332V5.33317C2 4.89114 2.17559 4.46722 2.48816 4.15466C2.80072 3.8421 3.22464 3.6665 3.66667 3.6665H13.6667C14.1087 3.6665 14.5326 3.8421 14.8452 4.15466C15.1577 4.46722 15.3333 4.89114 15.3333 5.33317V8.6665" stroke="#476D70" stroke-linecap="round" stroke-linejoin="round"/>
<path d="M14.5003 17.8332C16.3413 17.8332 17.8337 16.3408 17.8337 14.4998C17.8337 12.6589 16.3413 11.1665 14.5003 11.1665C12.6594 11.1665 11.167 12.6589 11.167 14.4998C11.167 16.3408 12.6594 17.8332 14.5003 17.8332Z" stroke="#476D70" stroke-linecap="round" stroke-linejoin="round"/>
<path d="M14.5 13.2467V14.5L15.3333 15.3333M12 2V5.33333V2ZM5.33333 2V5.33333V2ZM2 8.66667H15.3333H2Z" stroke="#476D70" stroke-linecap="round" stroke-linejoin="round"/>
</svg>
