<svg width="21" height="21" viewBox="0 0 21 21" fill="none" xmlns="http://www.w3.org/2000/svg">
<path d="M4.40505 9.72737C3.57749 9.93562 2.85444 10.4389 2.37177 11.1426C1.8891 11.8464 1.68002 12.7022 1.78382 13.5492C1.88762 14.3962 2.29714 15.1762 2.93546 15.7426C3.57377 16.3089 4.39694 16.6227 5.2503 16.625H14.8753C15.4931 16.6246 16.1038 16.4933 16.6672 16.2399C17.2306 15.9864 17.7339 15.6165 18.1441 15.1545C18.5542 14.6925 18.8619 14.1489 19.0468 13.5595C19.2317 12.97 19.2896 12.3481 19.2169 11.7346C19.1441 11.1211 18.9422 10.53 18.6245 10.0001C18.3068 9.47031 17.8805 9.01377 17.3736 8.66056C16.8668 8.30736 16.2909 8.0655 15.6838 7.95092C15.0767 7.83633 14.4523 7.85161 13.8516 7.99575L12.6878 8.3125" stroke="#476D70" stroke-linecap="round" stroke-linejoin="round"/>
<path d="M13.8516 7.99599C13.5525 6.81174 12.8143 5.78552 11.7867 5.12534C10.759 4.46517 9.51881 4.22045 8.31742 4.44078C7.11603 4.66112 6.04337 5.33003 5.31688 6.31191C4.59039 7.2938 4.26443 8.51519 4.40507 9.72849C4.40507 9.72849 4.53895 10.5002 4.81282 10.9377" stroke="#476D70" stroke-linecap="round" stroke-linejoin="round"/>
</svg>
