<svg width="31" height="30" viewBox="0 0 31 30" fill="none" xmlns="http://www.w3.org/2000/svg">
<path d="M27.2361 13.1779H24.0679V9.9715C24.0679 9.47192 23.6484 9.0683 23.1292 9.0683H13.8886L10.4477 5.90145C10.4039 5.86201 10.3463 5.83985 10.2863 5.83936H2.82935C2.31012 5.83936 1.89062 6.24297 1.89062 6.74256V23.4518C1.89062 23.9514 2.31012 24.355 2.82935 24.355H23.3052C23.6865 24.355 24.0327 24.132 24.1764 23.7905L28.1073 14.4198C28.1513 14.3125 28.1748 14.1968 28.1748 14.0811C28.1748 13.5815 27.7553 13.1779 27.2361 13.1779ZM4.00275 7.87156H9.5324L13.0409 11.1005H21.9558V13.1779H6.99492C6.61356 13.1779 6.26741 13.4008 6.12367 13.7424L4.00275 18.8003V7.87156ZM22.6393 22.3228H4.67745L7.70776 15.0972H25.6725L22.6393 22.3228Z" fill="url(#paint0_linear_194_1183)"/>
<defs>
<linearGradient id="paint0_linear_194_1183" x1="1.89062" y1="24.355" x2="28.7666" y2="23.452" gradientUnits="userSpaceOnUse">
<stop stop-color="#83B5B8"/>
<stop offset="1" stop-color="#618580"/>
</linearGradient>
</defs>
</svg>
