<svg width="31" height="30" viewBox="0 0 31 30" fill="none" xmlns="http://www.w3.org/2000/svg">
<path d="M15.0316 26.8471C14.3675 26.844 13.7314 26.5896 13.2607 26.1389C12.7899 25.6882 12.5224 25.0775 12.5158 24.4385H17.5223C17.525 24.7605 17.4611 25.0798 17.3346 25.3779C17.1727 25.7352 16.9249 26.0504 16.6115 26.2975C16.2981 26.5446 15.9282 26.7164 15.5322 26.7989H15.4734C15.328 26.8281 15.1801 26.8442 15.0316 26.8471ZM25.0446 23.2343H5.01855V20.8257L7.52181 19.6215V12.998C7.45587 11.2989 7.85466 9.61295 8.67831 8.10867C9.08364 7.41895 9.63635 6.81975 10.3 6.35062C10.9636 5.88148 11.7231 5.55306 12.5283 5.38702V2.76172H17.5348V5.38702C20.7628 6.12644 22.5413 8.82882 22.5413 12.998V19.6215L25.0446 20.8257V23.2343Z" fill="url(#paint0_linear_194_1189)"/>
<defs>
<linearGradient id="paint0_linear_194_1189" x1="5.01855" y1="26.8471" x2="25.5106" y2="26.4438" gradientUnits="userSpaceOnUse">
<stop stop-color="#83B5B8"/>
<stop offset="1" stop-color="#618580"/>
</linearGradient>
</defs>
</svg>
