<svg width="31" height="30" viewBox="0 0 31 30" fill="none" xmlns="http://www.w3.org/2000/svg">
<path d="M26.2975 25.7405L20.6827 20.3285L26.2975 25.7405ZM23.7943 13.0957C23.7943 15.8105 22.6734 18.4141 20.6782 20.3338C18.6831 22.2535 15.977 23.3319 13.1554 23.3319C10.3338 23.3319 7.62781 22.2535 5.63264 20.3338C3.63748 18.4141 2.5166 15.8105 2.5166 13.0957C2.5166 10.3808 3.63748 7.77719 5.63264 5.85751C7.62781 3.93784 10.3338 2.85938 13.1554 2.85938C15.977 2.85938 18.6831 3.93784 20.6782 5.85751C22.6734 7.77719 23.7943 10.3808 23.7943 13.0957V13.0957Z" stroke="url(#paint0_linear_194_1187)" stroke-width="2.5" stroke-linecap="round"/>
<defs>
<linearGradient id="paint0_linear_194_1187" x1="2.5166" y1="25.7405" x2="26.8457" y2="25.142" gradientUnits="userSpaceOnUse">
<stop stop-color="#83B5B8"/>
<stop offset="1" stop-color="#618580"/>
</linearGradient>
</defs>
</svg>
