<svg width="31" height="30" viewBox="0 0 31 30" fill="none" xmlns="http://www.w3.org/2000/svg">
<path d="M25.8281 5.74168H20.8998V3.93527C20.8998 3.81108 20.7942 3.70947 20.6652 3.70947H19.0224C18.8933 3.70947 18.7877 3.81108 18.7877 3.93527V5.74168H11.278V3.93527C11.278 3.81108 11.1723 3.70947 11.0433 3.70947H9.40051C9.27144 3.70947 9.16583 3.81108 9.16583 3.93527V5.74168H4.23755C3.71832 5.74168 3.29883 6.14529 3.29883 6.64488V25.3863C3.29883 25.8859 3.71832 26.2895 4.23755 26.2895H25.8281C26.3474 26.2895 26.7668 25.8859 26.7668 25.3863V6.64488C26.7668 6.14529 26.3474 5.74168 25.8281 5.74168ZM24.6547 24.2573H5.41095V13.5318H24.6547V24.2573ZM5.41095 11.6125V7.77388H9.16583V9.12868C9.16583 9.25287 9.27144 9.35448 9.40051 9.35448H11.0433C11.1723 9.35448 11.278 9.25287 11.278 9.12868V7.77388H18.7877V9.12868C18.7877 9.25287 18.8933 9.35448 19.0224 9.35448H20.6652C20.7942 9.35448 20.8998 9.25287 20.8998 9.12868V7.77388H24.6547V11.6125H5.41095Z" fill="url(#paint0_linear_194_1185)"/>
<defs>
<linearGradient id="paint0_linear_194_1185" x1="3.29883" y1="26.2895" x2="27.3078" y2="25.6989" gradientUnits="userSpaceOnUse">
<stop stop-color="#83B5B8"/>
<stop offset="1" stop-color="#618580"/>
</linearGradient>
</defs>
</svg>
