<svg width="31" height="30" viewBox="0 0 31 30" fill="none" xmlns="http://www.w3.org/2000/svg">
<path d="M11.278 18.8078L6.27148 23.6249M23.7943 18.8078H18.7878H23.7943ZM18.7878 18.8078V23.6249V18.8078ZM18.7878 18.8078L23.7943 23.6249L18.7878 18.8078ZM6.27148 11.5822H11.278H6.27148ZM11.278 11.5822V6.76514V11.5822ZM11.278 11.5822L6.27148 6.76514L11.278 11.5822ZM23.7943 11.5822H18.7878H23.7943ZM18.7878 11.5822V6.76514V11.5822ZM18.7878 11.5822L23.7943 6.76514L18.7878 11.5822ZM6.27148 18.8078H11.278H6.27148ZM11.278 18.8078V23.6249V18.8078Z" stroke="url(#paint0_linear_194_1181)" stroke-width="2" stroke-linecap="round" stroke-linejoin="round"/>
<defs>
<linearGradient id="paint0_linear_194_1181" x1="6.27148" y1="23.6249" x2="24.1982" y2="23.1839" gradientUnits="userSpaceOnUse">
<stop stop-color="#83B5B8"/>
<stop offset="1" stop-color="#618580"/>
</linearGradient>
</defs>
</svg>
